<svg version="1.1" id="Layer_1" xmlns="http://www.w3.org/2000/svg" xmlns:xlink="http://www.w3.org/1999/xlink" x="0px" y="0px"
	 width="100%" viewBox="0 0 1080 1080" enable-background="new 0 0 1080 1080" xml:space="preserve">
<path fill="#000000" opacity="1.000000" stroke="none" 
	d="
M988.000000,1081.000000 
	C658.666687,1081.000000 329.833344,1081.000000 1.000000,1081.000000 
	C1.000000,721.000000 1.000000,361.000000 1.000000,1.000000 
	C361.000000,1.000000 721.000000,1.000000 1081.000000,1.000000 
	C1081.000000,361.000000 1081.000000,721.000000 1081.000000,1081.000000 
	C1050.166626,1081.000000 1019.333313,1081.000000 988.000000,1081.000000 
M350.806244,573.580994 
	C353.716522,565.904175 356.216797,558.040405 359.615936,550.586487 
	C368.872375,530.288086 378.508789,510.162964 388.735718,489.982300 
	C398.009064,511.369385 407.282379,532.756470 416.674927,554.418457 
	C414.963684,554.770325 414.002960,554.967896 412.234741,555.025391 
	C392.954041,557.756470 379.782135,568.362610 372.126526,586.104431 
	C369.895111,591.275757 367.800873,596.520325 365.276459,601.546814 
	C363.249695,605.582397 359.847931,607.882874 355.064667,606.886597 
	C349.993164,605.830200 347.931366,602.135681 347.976624,597.403870 
	C348.028748,591.957153 348.635315,586.515808 349.197083,580.702026 
	C349.322083,580.622131 349.483032,580.566345 349.558929,580.453430 
	C349.605835,580.383667 349.523315,580.226929 349.498932,580.109192 
	C349.358978,580.462341 349.219025,580.815491 348.572784,581.694458 
	C347.688782,587.078186 346.258698,592.443237 346.073761,597.850891 
	C345.887299,603.301453 349.921295,607.923706 354.427612,609.059692 
	C358.846252,610.173462 363.601959,608.061279 366.484314,602.975830 
	C368.846497,598.808167 370.760284,594.348450 372.503571,589.874329 
	C379.799866,571.148132 392.903229,559.580322 413.847961,556.474548 
	C416.863586,555.278625 417.850372,557.097412 418.840363,559.512329 
	C425.005463,574.550842 431.236420,589.563049 437.595551,604.520142 
	C438.186646,605.910461 439.746155,607.739868 440.989746,607.849609 
	C445.529541,608.250122 450.126007,608.007996 455.226471,608.007996 
	C435.874573,562.335083 416.784302,517.279785 397.119904,470.869385 
	C393.547516,477.444122 390.724396,482.639923 387.320374,488.210327 
	C373.635010,513.741577 360.954865,539.731628 351.605560,567.216553 
	C350.852875,569.429321 350.931000,571.924683 350.144623,574.921631 
	C349.963837,575.678589 349.783081,576.435608 349.602295,577.192566 
	C349.974426,577.252747 350.346558,577.312927 350.718689,577.373108 
	C350.718689,576.345093 350.718689,575.317078 350.806244,573.580994 
M814.028992,472.127838 
	C800.962158,472.127838 787.895325,472.127838 774.577026,472.127838 
	C774.577026,477.151978 774.577026,481.690765 774.577026,486.860535 
	C776.738037,485.255402 778.523743,483.899231 780.339844,482.584930 
	C790.723328,475.070404 802.846313,474.423096 815.793762,473.993011 
	C817.174255,474.002808 818.554810,474.012634 820.074707,474.947784 
	C820.078491,480.761169 820.079102,486.574524 820.086487,492.387909 
	C820.134949,530.586914 820.184875,568.785889 820.084717,607.513611 
	C820.393188,607.617737 820.701599,607.721802 821.928528,607.988708 
	C826.199341,607.988708 830.470093,607.988708 835.048584,607.988708 
	C835.048584,563.002441 835.048584,518.552917 835.949524,473.993896 
	C852.039429,473.855560 867.741943,475.135834 880.549377,487.347198 
	C880.549377,481.630768 880.549377,477.037689 880.549377,472.296753 
	C865.145020,472.296753 850.050720,472.296753 834.043396,472.150085 
	C829.709717,472.198975 825.376038,472.247864 820.286133,472.083923 
	C818.491455,472.149353 816.696716,472.214783 814.028992,472.127838 
M930.294312,473.220367 
	C922.885742,475.554016 915.844788,478.492310 910.389954,485.333313 
	C900.116455,499.803040 901.459534,516.961060 914.556396,528.968445 
	C919.747864,533.727966 925.934448,537.571411 932.106873,541.053894 
	C942.631653,546.992065 953.960510,551.607483 964.072754,558.139282 
	C971.157166,562.715271 977.668579,568.868774 982.829285,575.557434 
	C989.247070,583.875427 986.961365,592.683350 978.540649,598.962585 
	C977.078247,600.053101 975.542786,601.045471 973.293884,602.131653 
	C968.500000,603.555603 963.706177,604.979492 958.018005,606.295227 
	C941.244873,606.774658 927.900146,599.283813 916.221130,588.123962 
	C906.658936,578.986816 899.912109,567.878723 894.353821,555.853088 
	C893.960205,562.734131 894.150635,569.497437 893.881165,576.242310 
	C893.742981,579.700562 894.823608,582.236877 897.192200,584.635132 
	C914.226624,601.882874 934.725220,609.804932 959.780945,607.982422 
	C964.930054,606.373840 970.079163,604.765259 975.911621,603.031677 
	C995.027893,593.987915 997.925659,568.587097 984.820312,554.351013 
	C979.218384,548.265747 971.909912,543.478027 964.725403,539.192993 
	C955.930847,533.947632 946.312195,530.105103 937.310547,525.179749 
	C928.531372,520.376160 920.442993,514.513855 914.506836,506.221375 
	C910.066833,500.019012 908.315796,493.407349 912.715942,485.863159 
	C917.257019,479.566437 924.013550,476.923431 931.873291,474.710236 
	C951.142761,471.362488 966.359680,478.796234 978.795166,492.849091 
	C982.980713,497.579102 986.255005,503.115540 990.399719,508.918945 
	C990.399719,505.017395 989.976624,501.667114 990.480347,498.462494 
	C991.902466,489.415009 987.138977,484.081757 980.061646,479.972839 
	C964.651917,471.026428 948.284485,468.970490 930.294312,473.220367 
M691.842468,533.979614 
	C702.847961,534.648987 708.549194,538.515808 711.494019,549.023682 
	C713.950439,557.788635 715.169800,566.896851 717.019348,575.836060 
	C721.017822,595.162231 730.870605,604.455078 750.498718,607.310364 
	C753.870239,607.800720 757.315002,607.787659 760.725891,608.007141 
	C760.837952,607.559143 760.949951,607.111145 761.062012,606.663086 
	C750.227783,605.583679 744.968018,597.911499 740.714600,589.500000 
	C736.228943,580.629150 732.333130,571.458435 728.232056,562.395020 
	C722.575317,549.893616 715.774719,538.448669 700.961182,533.308289 
	C703.876587,532.419739 705.901489,531.822571 707.914062,531.186096 
	C722.173462,526.676331 729.974304,516.936218 730.168396,503.413330 
	C730.353149,490.538818 723.603638,481.110718 708.948364,476.860352 
	C699.660583,474.166687 689.715576,473.739410 679.149963,472.044006 
	C672.743896,472.115784 666.337891,472.187592 659.012695,472.146637 
	C654.413696,472.146637 649.814697,472.146637 645.318237,472.146637 
	C645.318237,517.793030 645.318237,562.840698 645.318237,607.704407 
	C650.425964,607.704407 655.183289,607.704407 659.998230,607.704407 
	C659.998230,573.937256 659.998230,540.466614 660.583313,506.295532 
	C662.664429,510.526642 664.483154,514.913269 666.879883,518.957336 
	C672.284851,528.077148 679.808105,534.042786 691.842468,533.979614 
M564.341431,485.196045 
	C562.341248,489.479736 560.303223,493.746216 558.347412,498.050079 
	C549.080872,518.441711 539.803711,538.828613 530.613708,559.254700 
	C528.863342,563.145142 527.896057,567.436096 525.807434,571.110229 
	C524.252869,573.845032 525.056091,573.995544 526.688904,574.079590 
	C532.299866,560.197510 537.389282,546.514832 543.326416,533.210388 
	C549.810181,518.681152 557.078613,504.502106 564.831116,490.131042 
	C573.879333,510.868103 582.947632,531.596558 591.864563,552.389893 
	C592.097229,552.932373 590.677368,554.183533 589.203552,554.971436 
	C572.502380,557.253418 559.395752,564.988098 551.418640,580.236267 
	C548.961609,584.932983 547.077576,589.926086 544.762329,594.701660 
	C543.179565,597.966370 541.783752,601.505188 539.457703,604.187012 
	C534.910706,609.429504 526.978699,607.483704 524.873291,600.859497 
	C524.281067,598.996277 523.914673,596.922668 524.057129,594.990784 
	C524.476807,589.298950 525.203491,583.629700 525.946594,576.673523 
	C524.150879,578.846497 522.294189,580.066711 522.144714,581.468872 
	C521.715759,585.493469 522.043335,589.593018 521.954834,593.660583 
	C521.773560,601.993347 525.201172,607.923096 530.983826,609.115479 
	C536.451904,610.242981 541.406372,606.805969 544.887878,599.261780 
	C547.391602,593.836426 549.551636,588.248596 552.157593,582.875183 
	C558.220947,570.372498 567.926147,562.078674 581.390930,558.359863 
	C584.249634,557.570312 587.163391,556.980103 590.837097,556.321411 
	C594.004333,555.294312 594.290955,557.843445 595.087524,559.750488 
	C601.794922,575.808350 608.500061,591.867004 615.178711,607.860352 
	C620.551147,607.860352 625.674744,607.860352 631.406677,607.860352 
	C612.158203,562.419128 593.056091,517.323303 573.538208,471.246002 
	C570.318542,476.546692 567.687134,480.878937 564.341431,485.196045 
M104.736511,496.500153 
	C104.736511,488.569366 104.736511,480.638580 104.736511,472.621338 
	C99.197578,472.621338 94.298470,472.621338 89.311844,472.621338 
	C89.311844,517.827332 89.311844,562.709839 89.311844,607.806274 
	C114.943199,607.806274 140.353531,607.806274 166.440277,607.806274 
	C167.142822,600.049316 167.838608,592.360962 168.541061,584.673218 
	C168.550522,584.569763 168.644104,584.474060 168.698425,584.374756 
	C167.650803,586.245728 166.690384,588.164307 165.617157,590.017517 
	C160.803421,598.330078 154.148621,604.951111 144.339706,605.583679 
	C131.311523,606.423828 118.188332,605.790894 104.736504,605.790894 
	C104.736504,569.688049 104.736504,533.594116 104.736511,496.500153 
M183.974060,571.500000 
	C183.974060,583.589600 183.974060,595.679138 183.974060,607.879883 
	C188.992935,607.879883 193.454361,607.879883 198.082886,607.879883 
	C198.082886,562.721069 198.082886,517.683960 198.082886,472.538391 
	C193.339233,472.538391 188.903732,472.538391 183.974060,472.538391 
	C183.974060,505.328979 183.974060,537.914490 183.974060,571.500000 
M281.981903,606.820923 
	C272.463989,605.830017 263.860016,602.406982 256.507965,596.354431 
	C232.660904,576.722290 223.223526,551.372681 227.537674,520.953186 
	C229.501785,507.103973 234.830521,494.706543 245.644669,485.252686 
	C247.957504,483.230774 250.540070,481.517334 252.998383,479.661804 
	C252.650864,479.260315 252.303360,478.858856 251.955841,478.457367 
	C237.983795,484.599213 227.111038,494.490570 220.121689,508.259766 
	C207.129837,533.854065 208.545319,558.952820 225.829239,581.982666 
	C242.438217,604.113281 265.197113,612.246704 292.511292,606.883789 
	C289.282776,606.883789 286.054291,606.883789 281.981903,606.820923 
M284.448303,471.905273 
	C278.580872,472.326782 272.713470,472.748291 266.846039,473.169800 
	C266.747009,473.628998 266.647980,474.088165 266.548950,474.547333 
	C294.588318,471.593109 311.813538,486.679779 325.014465,510.127228 
	C325.014465,504.055695 324.780060,499.390045 325.090820,494.761017 
	C325.327179,491.239868 324.011871,488.838837 321.515594,486.569519 
	C311.259399,477.245850 299.211914,472.474030 284.448303,471.905273 
M317.889954,597.359558 
	C332.694641,587.068359 335.499451,580.422546 331.260651,565.001221 
	C327.535461,581.276855 320.104767,594.631775 304.961914,602.597595 
	C305.217255,602.990845 305.472595,603.384033 305.727966,603.777283 
	C309.592865,601.786804 313.457764,599.796387 317.889954,597.359558 
M332.182434,561.968323 
	C332.087372,562.035278 331.992310,562.102234 331.897247,562.169250 
	C331.989929,562.151184 332.082581,562.133118 332.182434,561.968323 
M304.506836,604.473999 
	C304.506836,604.473999 304.508209,604.513000 304.506836,604.473999 
M526.523376,576.520508 
	C526.523376,576.520508 526.533142,576.625916 526.523376,576.520508 
z"/>
<path fill="#F4F4F4" opacity="1.000000" stroke="none" 
	d="
M104.736511,497.000183 
	C104.736504,533.594116 104.736504,569.688049 104.736504,605.790894 
	C118.188332,605.790894 131.311523,606.423828 144.339706,605.583679 
	C154.148621,604.951111 160.803421,598.330078 165.617157,590.017517 
	C166.690384,588.164307 167.650803,586.245728 168.698425,584.374756 
	C168.644104,584.474060 168.550522,584.569763 168.541061,584.673218 
	C167.838608,592.360962 167.142822,600.049316 166.440277,607.806274 
	C140.353531,607.806274 114.943199,607.806274 89.311844,607.806274 
	C89.311844,562.709839 89.311844,517.827332 89.311844,472.621338 
	C94.298470,472.621338 99.197578,472.621338 104.736511,472.621338 
	C104.736511,480.638580 104.736511,488.569366 104.736511,497.000183 
z"/>
<path fill="#FAFAFA" opacity="1.000000" stroke="none" 
	d="
M387.901245,487.835754 
	C390.724396,482.639923 393.547516,477.444122 397.119904,470.869385 
	C416.784302,517.279785 435.874573,562.335083 455.226471,608.007996 
	C450.126007,608.007996 445.529541,608.250122 440.989746,607.849609 
	C439.746155,607.739868 438.186646,605.910461 437.595551,604.520142 
	C431.236420,589.563049 425.005463,574.550842 418.840363,559.512329 
	C417.850372,557.097412 416.863586,555.278625 413.483887,556.153992 
	C413.093933,555.610718 413.068054,555.388062 413.042206,555.165405 
	C414.002960,554.967896 414.963684,554.770325 416.674927,554.418457 
	C407.282379,532.756470 398.009064,511.369385 388.429810,489.620911 
	C388.049652,488.784912 387.975433,488.310303 387.901245,487.835754 
z"/>
<path fill="#FAFAFA" opacity="1.000000" stroke="none" 
	d="
M590.028198,555.104187 
	C590.677368,554.183533 592.097229,552.932373 591.864563,552.389893 
	C582.947632,531.596558 573.879333,510.868103 564.594849,489.884003 
	C564.591003,488.161713 564.823364,486.686462 565.055725,485.211212 
	C567.687134,480.878937 570.318542,476.546692 573.538208,471.246002 
	C593.056091,517.323303 612.158203,562.419128 631.406677,607.860352 
	C625.674744,607.860352 620.551147,607.860352 615.178711,607.860352 
	C608.500061,591.867004 601.794922,575.808350 595.087524,559.750488 
	C594.290955,557.843445 594.004333,555.294312 590.442871,556.011230 
	C590.041870,555.502075 590.035034,555.303101 590.028198,555.104187 
z"/>
<path fill="#FEFEFE" opacity="1.000000" stroke="none" 
	d="
M659.998230,506.995972 
	C659.998230,540.466614 659.998230,573.937256 659.998230,607.704407 
	C655.183289,607.704407 650.425964,607.704407 645.318237,607.704407 
	C645.318237,562.840698 645.318237,517.793030 645.318237,472.146637 
	C649.814697,472.146637 654.413696,472.146637 659.477173,472.532104 
	C660.008667,473.351196 660.075623,473.784821 660.129028,474.672852 
	C660.532227,483.400543 660.948975,491.673828 661.025269,500.181946 
	C660.455933,502.609833 660.227051,504.802887 659.998230,506.995972 
z"/>
<path fill="#FEFEFE" opacity="1.000000" stroke="none" 
	d="
M183.974060,571.000000 
	C183.974060,537.914490 183.974060,505.328979 183.974060,472.538391 
	C188.903732,472.538391 193.339233,472.538391 198.082886,472.538391 
	C198.082886,517.683960 198.082886,562.721069 198.082886,607.879883 
	C193.454361,607.879883 188.992935,607.879883 183.974060,607.879883 
	C183.974060,595.679138 183.974060,583.589600 183.974060,571.000000 
z"/>
<path fill="#FEFEFE" opacity="1.000000" stroke="none" 
	d="
M820.234314,606.984863 
	C820.184875,568.785889 820.134949,530.586914 820.086487,492.387909 
	C820.079102,486.574524 820.078491,480.761169 820.247314,474.356628 
	C820.627380,473.275879 820.834839,472.786316 821.042358,472.296753 
	C825.376038,472.247864 829.709717,472.198975 834.484741,472.525330 
	C834.966858,473.301544 835.007751,473.702454 835.048584,474.103394 
	C835.048584,518.552917 835.048584,563.002441 835.048584,607.988708 
	C830.470093,607.988708 826.199341,607.988708 821.396973,607.719360 
	C820.726929,607.197571 820.516541,607.042542 820.234314,606.984863 
z"/>
<path fill="#F9F9F9" opacity="1.000000" stroke="none" 
	d="
M974.041016,602.083252 
	C975.542786,601.045471 977.078247,600.053101 978.540649,598.962585 
	C986.961365,592.683350 989.247070,583.875427 982.829285,575.557434 
	C977.668579,568.868774 971.157166,562.715271 964.072754,558.139282 
	C953.960510,551.607483 942.631653,546.992065 932.106873,541.053894 
	C925.934448,537.571411 919.747864,533.727966 914.556396,528.968445 
	C901.459534,516.961060 900.116455,499.803040 910.933960,485.279785 
	C911.690369,485.543793 911.902832,485.861328 912.115295,486.178833 
	C908.315796,493.407349 910.066833,500.019012 914.506836,506.221375 
	C920.442993,514.513855 928.531372,520.376160 937.310547,525.179749 
	C946.312195,530.105103 955.930847,533.947632 964.725403,539.192993 
	C971.909912,543.478027 979.218384,548.265747 984.820312,554.351013 
	C997.925659,568.587097 995.027893,593.987915 975.332031,602.955566 
	C974.515381,602.614014 974.278259,602.348633 974.041016,602.083252 
z"/>
<path fill="#F8F8F8" opacity="1.000000" stroke="none" 
	d="
M680.065308,472.295685 
	C689.715576,473.739410 699.660583,474.166687 708.948364,476.860352 
	C723.603638,481.110718 730.353149,490.538818 730.168396,503.413330 
	C729.974304,516.936218 722.173462,526.676331 707.914062,531.186096 
	C705.901489,531.822571 703.876587,532.419739 700.961182,533.308289 
	C715.774719,538.448669 722.575317,549.893616 728.232056,562.395020 
	C732.333130,571.458435 736.228943,580.629150 740.714600,589.500000 
	C744.968018,597.911499 750.227783,605.583679 761.062012,606.663086 
	C760.949951,607.111145 760.837952,607.559143 760.725891,608.007141 
	C757.315002,607.787659 753.870239,607.800720 750.498718,607.310364 
	C730.870605,604.455078 721.017822,595.162231 717.019348,575.836060 
	C715.169800,566.896851 713.950439,557.788635 711.494019,549.023682 
	C708.549194,538.515808 702.847961,534.648987 691.461609,533.689331 
	C691.242249,533.097961 691.225464,532.807190 691.452759,532.482117 
	C693.984314,532.057495 696.170959,531.915710 698.189697,531.258179 
	C709.614746,527.536743 713.575745,518.350891 714.724487,507.568634 
	C715.913696,496.405823 713.640747,486.383820 703.331848,479.806915 
	C702.913391,479.539948 702.494263,479.203400 702.029114,479.090912 
	C694.703613,477.319275 687.370483,475.579254 680.057190,473.575134 
	C680.071899,472.977478 680.068604,472.636597 680.065308,472.295685 
z"/>
<path fill="#F8F8F8" opacity="1.000000" stroke="none" 
	d="
M282.403839,606.852356 
	C286.054291,606.883789 289.282776,606.883789 292.511292,606.883789 
	C265.197113,612.246704 242.438217,604.113281 225.829239,581.982666 
	C208.545319,558.952820 207.129837,533.854065 220.121689,508.259766 
	C227.111038,494.490570 237.983795,484.599213 251.955841,478.457367 
	C252.303360,478.858856 252.650864,479.260315 252.998383,479.661804 
	C250.540070,481.517334 247.957504,483.230774 245.644669,485.252686 
	C234.830521,494.706543 229.501785,507.103973 227.537674,520.953186 
	C223.223526,551.372681 232.660904,576.722290 256.507965,596.354431 
	C263.860016,602.406982 272.463989,605.830017 282.403839,606.852356 
z"/>
<path fill="#F8F8F8" opacity="1.000000" stroke="none" 
	d="
M958.959045,607.832947 
	C934.725220,609.804932 914.226624,601.882874 897.192200,584.635132 
	C894.823608,582.236877 893.742981,579.700562 893.881165,576.242310 
	C894.150635,569.497437 893.960205,562.734131 894.353821,555.853088 
	C899.912109,567.878723 906.658936,578.986816 916.221130,588.123962 
	C927.900146,599.283813 941.244873,606.774658 958.414917,606.586304 
	C958.879883,607.192993 958.928955,607.511475 958.959045,607.832947 
z"/>
<path fill="#F4F4F4" opacity="1.000000" stroke="none" 
	d="
M931.053894,473.245483 
	C948.284485,468.970490 964.651917,471.026428 980.061646,479.972839 
	C987.138977,484.081757 991.902466,489.415009 990.480347,498.462494 
	C989.976624,501.667114 990.399719,505.017395 990.399719,508.918945 
	C986.255005,503.115540 982.980713,497.579102 978.795166,492.849091 
	C966.359680,478.796234 951.142761,471.362488 931.508789,474.479492 
	C931.114197,473.914337 931.084045,473.579926 931.053894,473.245483 
z"/>
<path fill="#F8F8F8" opacity="1.000000" stroke="none" 
	d="
M284.932678,471.930145 
	C299.211914,472.474030 311.259399,477.245850 321.515594,486.569519 
	C324.011871,488.838837 325.327179,491.239868 325.090820,494.761017 
	C324.780060,499.390045 325.014465,504.055695 325.014465,510.127228 
	C311.813538,486.679779 294.588318,471.593109 266.548950,474.547333 
	C266.647980,474.088165 266.747009,473.628998 266.846039,473.169800 
	C272.713470,472.748291 278.580872,472.326782 284.932678,471.930145 
z"/>
<path fill="#C9C9C9" opacity="1.000000" stroke="none" 
	d="
M589.615845,555.037842 
	C590.035034,555.303101 590.041870,555.502075 590.050232,555.999573 
	C587.163391,556.980103 584.249634,557.570312 581.390930,558.359863 
	C567.926147,562.078674 558.220947,570.372498 552.157593,582.875183 
	C549.551636,588.248596 547.391602,593.836426 544.887878,599.261780 
	C541.406372,606.805969 536.451904,610.242981 530.983826,609.115479 
	C525.201172,607.923096 521.773560,601.993347 521.954834,593.660583 
	C522.043335,589.593018 521.715759,585.493469 522.144714,581.468872 
	C522.294189,580.066711 524.150879,578.846497 525.946594,576.673523 
	C525.203491,583.629700 524.476807,589.298950 524.057129,594.990784 
	C523.914673,596.922668 524.281067,598.996277 524.873291,600.859497 
	C526.978699,607.483704 534.910706,609.429504 539.457703,604.187012 
	C541.783752,601.505188 543.179565,597.966370 544.762329,594.701660 
	C547.077576,589.926086 548.961609,584.932983 551.418640,580.236267 
	C559.395752,564.988098 572.502380,557.253418 589.615845,555.037842 
z"/>
<path fill="#C9C9C9" opacity="1.000000" stroke="none" 
	d="
M412.638489,555.095398 
	C413.068054,555.388062 413.093933,555.610718 413.079529,556.167236 
	C392.903229,559.580322 379.799866,571.148132 372.503571,589.874329 
	C370.760284,594.348450 368.846497,598.808167 366.484314,602.975830 
	C363.601959,608.061279 358.846252,610.173462 354.427612,609.059692 
	C349.921295,607.923706 345.887299,603.301453 346.073761,597.850891 
	C346.258698,592.443237 347.688782,587.078186 348.815674,581.399902 
	C349.058533,581.105408 349.001068,581.072083 349.001068,581.072083 
	C348.635315,586.515808 348.028748,591.957153 347.976624,597.403870 
	C347.931366,602.135681 349.993164,605.830200 355.064667,606.886597 
	C359.847931,607.882874 363.249695,605.582397 365.276459,601.546814 
	C367.800873,596.520325 369.895111,591.275757 372.126526,586.104431 
	C379.782135,568.362610 392.954041,557.756470 412.638489,555.095398 
z"/>
<path fill="#E0E0E0" opacity="1.000000" stroke="none" 
	d="
M835.499023,474.048645 
	C835.007751,473.702454 834.966858,473.301544 834.941162,472.598694 
	C850.050720,472.296753 865.145020,472.296753 880.549377,472.296753 
	C880.549377,477.037689 880.549377,481.630768 880.549377,487.347198 
	C867.741943,475.135834 852.039429,473.855560 835.499023,474.048645 
z"/>
<path fill="#F4F4F4" opacity="1.000000" stroke="none" 
	d="
M814.981384,473.829559 
	C802.846313,474.423096 790.723328,475.070404 780.339844,482.584930 
	C778.523743,483.899231 776.738037,485.255402 774.577026,486.860535 
	C774.577026,481.690765 774.577026,477.151978 774.577026,472.127838 
	C787.895325,472.127838 800.962158,472.127838 814.475464,472.591858 
	C814.941772,473.313782 814.961548,473.571655 814.981384,473.829559 
z"/>
<path fill="#F4F4F4" opacity="1.000000" stroke="none" 
	d="
M317.606323,597.582764 
	C313.457764,599.796387 309.592865,601.786804 305.727966,603.777283 
	C305.472595,603.384033 305.217255,602.990845 304.961914,602.597595 
	C320.104767,594.631775 327.535461,581.276855 331.260651,565.001221 
	C335.499451,580.422546 332.694641,587.068359 317.606323,597.582764 
z"/>
<path fill="#C9C9C9" opacity="1.000000" stroke="none" 
	d="
M564.698608,485.203613 
	C564.823364,486.686462 564.591003,488.161713 564.181824,489.903687 
	C557.078613,504.502106 549.810181,518.681152 543.326416,533.210388 
	C537.389282,546.514832 532.299866,560.197510 526.688904,574.079590 
	C525.056091,573.995544 524.252869,573.845032 525.807434,571.110229 
	C527.896057,567.436096 528.863342,563.145142 530.613708,559.254700 
	C539.803711,538.828613 549.080872,518.441711 558.347412,498.050079 
	C560.303223,493.746216 562.341248,489.479736 564.698608,485.203613 
z"/>
<path fill="#C9C9C9" opacity="1.000000" stroke="none" 
	d="
M387.610779,488.023010 
	C387.975433,488.310303 388.049652,488.784912 388.059265,489.614319 
	C378.508789,510.162964 368.872375,530.288086 359.615936,550.586487 
	C356.216797,558.040405 353.716522,565.904175 350.734802,573.969543 
	C350.663391,574.358093 350.623016,574.288757 350.623047,574.288757 
	C350.931000,571.924683 350.852875,569.429321 351.605560,567.216553 
	C360.954865,539.731628 373.635010,513.741577 387.610779,488.023010 
z"/>
<path fill="#C9C9C9" opacity="1.000000" stroke="none" 
	d="
M691.030273,532.526733 
	C691.225464,532.807190 691.242249,533.097961 691.058777,533.625610 
	C679.808105,534.042786 672.284851,528.077148 666.879883,518.957336 
	C664.483154,514.913269 662.664429,510.526642 660.290771,506.645752 
	C660.227051,504.802887 660.455933,502.609833 661.254272,500.453766 
	C664.889282,515.326721 673.555603,531.095154 691.030273,532.526733 
z"/>
<path fill="#C9C9C9" opacity="1.000000" stroke="none" 
	d="
M930.674072,473.232910 
	C931.084045,473.579926 931.114197,473.914337 931.098145,474.497070 
	C924.013550,476.923431 917.257019,479.566437 912.415649,486.020996 
	C911.902832,485.861328 911.690369,485.543793 911.218506,485.100952 
	C915.844788,478.492310 922.885742,475.554016 930.674072,473.232910 
z"/>
<path fill="#C9C9C9" opacity="1.000000" stroke="none" 
	d="
M679.607666,472.169861 
	C680.068604,472.636597 680.071899,472.977478 679.593567,473.663116 
	C672.788757,474.078064 666.465698,474.148254 660.142578,474.218475 
	C660.075623,473.784821 660.008667,473.351196 659.936768,472.588440 
	C666.337891,472.187592 672.743896,472.115784 679.607666,472.169861 
z"/>
<path fill="#C9C9C9" opacity="1.000000" stroke="none" 
	d="
M959.369995,607.907715 
	C958.928955,607.511475 958.879883,607.192993 958.862061,606.640381 
	C963.706177,604.979492 968.500000,603.555603 973.667480,602.107422 
	C974.278259,602.348633 974.515381,602.614014 974.990356,603.018066 
	C970.079163,604.765259 964.930054,606.373840 959.369995,607.907715 
z"/>
<path fill="#E0E0E0" opacity="1.000000" stroke="none" 
	d="
M815.387573,473.911285 
	C814.961548,473.571655 814.941772,473.313782 814.911987,472.668030 
	C816.696716,472.214783 818.491455,472.149353 820.664246,472.190338 
	C820.834839,472.786316 820.627380,473.275879 820.177612,473.893921 
	C818.554810,474.012634 817.174255,474.002808 815.387573,473.911285 
z"/>
<path fill="#020202" opacity="1.000000" stroke="none" 
	d="
M350.383820,574.605225 
	C350.623016,574.288757 350.663391,574.358093 350.691040,574.323608 
	C350.718689,575.317078 350.718689,576.345093 350.718689,577.373108 
	C350.346558,577.312927 349.974426,577.252747 349.602295,577.192566 
	C349.783081,576.435608 349.963837,575.678589 350.383820,574.605225 
z"/>
<path fill="#F4F4F4" opacity="1.000000" stroke="none" 
	d="
M332.178833,562.041748 
	C332.082581,562.133118 331.989929,562.151184 331.897247,562.169189 
	C331.992310,562.102234 332.087372,562.035278 332.178833,562.041748 
z"/>
<path fill="#C9C9C9" opacity="1.000000" stroke="none" 
	d="
M349.068787,581.136963 
	C349.219025,580.815491 349.358978,580.462341 349.498901,580.109192 
	C349.523315,580.226929 349.605835,580.383667 349.558929,580.453430 
	C349.483032,580.566345 349.322083,580.622131 349.099060,580.887085 
	C349.001068,581.072083 349.058533,581.105408 349.068787,581.136963 
z"/>
<path fill="#F4F4F4" opacity="1.000000" stroke="none" 
	d="
M304.507507,604.493530 
	C304.508209,604.513000 304.506836,604.473999 304.507507,604.493530 
z"/>
<path fill="#C9C9C9" opacity="1.000000" stroke="none" 
	d="
M526.528259,576.573242 
	C526.533142,576.625916 526.523376,576.520508 526.528259,576.573242 
z"/>
<path fill="#E0E0E0" opacity="1.000000" stroke="none" 
	d="
M820.159546,607.249268 
	C820.516541,607.042542 820.726929,607.197571 820.937744,607.638000 
	C820.701599,607.721802 820.393188,607.617737 820.159546,607.249268 
z"/>
<path fill="#020202" opacity="1.000000" stroke="none" 
	d="
M660.129028,474.672852 
	C666.465698,474.148254 672.788757,474.078064 679.575500,473.919861 
	C687.370483,475.579254 694.703613,477.319275 702.029114,479.090912 
	C702.494263,479.203400 702.913391,479.539948 703.331848,479.806915 
	C713.640747,486.383820 715.913696,496.405823 714.724487,507.568634 
	C713.575745,518.350891 709.614746,527.536743 698.189697,531.258179 
	C696.170959,531.915710 693.984314,532.057495 691.452759,532.482117 
	C673.555603,531.095154 664.889282,515.326721 661.594727,500.218964 
	C660.948975,491.673828 660.532227,483.400543 660.129028,474.672852 
z"/>
</svg>